<svg viewBox="0 0 71.16 29.04" xmlns="http://www.w3.org/2000/svg"><g fill="#bf9a35"><path d="m4 7.69v5.85a20.22 20.22 0 0 1 -4 .05v-1.42h2.37l.08-.09s0 0 0 0a.5.5 0 0 0 0-.12.13.13 0 0 0 0-.06v-11.61s0-.08 0-.12 0 0 0-.1h1.55a18.45 18.45 0 0 1 0 1.93v2.07 2.09h3.71v2.42h2.29c-.69-1.89-.38-3.31.92-4.24a3.21 3.21 0 0 1 3.84.08c1.21 1 1.49 2.4.79 4.17h1.33 1.33a19.92 19.92 0 0 0 0-2c0-.67 0-1.34 0-2a1.86 1.86 0 0 1 .79-.11h.76v4.11h1.25 1.3c0-1.38 0-2.73 0-4.1h1.49v4.08h1.44c0-.44 0-.88 0-1.33v-2.73h1.51v4.06h1.45v-4h1.51v1.3 2.7h2.29c-.08-.19-.15-.35-.21-.51a3.18 3.18 0 1 1 2.89 2.06h-28.38a3.25 3.25 0 0 1 -.09-1.19c0-.39 0-.78 0-1.23-.74-.04-1.43-.03-2.21-.01zm29.08-.78a1.73 1.73 0 0 0 1.72 1.69 1.71 1.71 0 0 0 1.67-1.7 1.67 1.67 0 0 0 -1.65-1.66 1.72 1.72 0 0 0 -1.71 1.67zm-18.67 0a1.66 1.66 0 1 0 -1.66 1.69 1.67 1.67 0 0 0 1.69-1.66z"/><path d="m2.51 16.06h5.19v4.75c.46.12 19.05.17 20.47.06a16.08 16.08 0 0 0 .06-3.25 2.32 2.32 0 0 0 -.38-.06c-4.82 0-9.64 0-14.46 0a2.23 2.23 0 0 0 -2.33 2.08 6.49 6.49 0 0 1 -1.47 0 3.21 3.21 0 0 1 .63-2.06 3.45 3.45 0 0 1 2.89-1.56h16.36.29v4.78h2.24c-.11-.38-.25-.75-.32-1.13a3.17 3.17 0 1 1 3.15 2.7h-28.61v-4.7a6.47 6.47 0 0 0 -2.22-.05v4.16 4.15h-4a6 6 0 0 1 0-1.48h2.51zm32.3 1.5a1.67 1.67 0 0 0 -.06 3.34 1.67 1.67 0 0 0 1.72-1.65 1.66 1.66 0 0 0 -1.66-1.69z"/><path d="m42.17 14.47a14.5 14.5 0 1 1 14.46 14.53 14.43 14.43 0 0 1 -14.46-14.53zm27.55.06a13.06 13.06 0 1 0 -13.06 13 13 13 0 0 0 13.06-13z"/><path d="m24.51 12.5.37.39-1 .95h5.12v.53h-18.63v-.51h.66 10.44a3.5 3.5 0 0 0 2.07-.54c.32-.24.6-.51.97-.82z"/><path d="m19.92 27.48c.21.3.51.27.87.25v-1.55c1.37-.31 1.84.07 1.78 1.36.35.22.35.22.94.17 0-.9 0-1.82 0-2.76h.32v3.05a1.94 1.94 0 0 1 -1.49-.19 3.23 3.23 0 0 1 -2.62 0 .93.93 0 0 1 -1.35-.07 3.16 3.16 0 0 1 -2.83 0 1.59 1.59 0 0 1 -1.72.11l-1.47.23-.18-.33c.47-.16 1 .07 1.44-.28l-.53-1.42h.35l.65 1.55a.89.89 0 0 0 .19.1c.77.09 1.15.06 1.09-.94 0-.22 0-.43 0-.66h.34v.69.69c.33.38.72.26 1.16.27v-1.63h.31c.14.52 0 1.06.09 1.57.58.14.78 0 .82-.54 0-.17 0-.35 0-.53s0-.3 0-.47h.32v.77a1.49 1.49 0 0 0 .08.52.53.53 0 0 0 .55.35c.24 0 .39-.19.42-.5s0-.7 0-1.06c0-.1.09-.2.2-.43a6.91 6.91 0 0 1 .27 1.68zm1.27.24c.62 0 .83-.06 1-.35a.7.7 0 0 0 -1-.91z"/><path d="m23.24 3.35-.24-.47.95-.9h-1.57v-.54h5.07a.44.44 0 0 1 .06.16 2.51 2.51 0 0 1 0 .35l-1.19.05a3.45 3.45 0 0 0 -2.32.7c-.24.16-.46.38-.76.65z"/><path d="m10.43 28.09c-.66 0-1.31 0-2 0-.46 0-.62-.21-.66-.67 0-.15 0-.31 0-.47s0-.31 0-.45a.6.6 0 0 0 -.82.08.66.66 0 0 0 -.16.72c.13.4.49.46.88.47l-.13.31a1 1 0 0 1 -1-.51 1.05 1.05 0 0 1 0-1.07c.39-.6 1-.41 1.62-.4v1.59l.71.06v-1.61c.58-.05 1.15-.26 1.57.26s.23 1.11-.01 1.69zm-.2-.37c0-.24.06-.45.08-.65a.56.56 0 0 0 -.3-.59c-.22-.11-.47-.22-.7 0v1.22z"/><path d="m35.4 27.81a.93.93 0 0 1 -1.08.15c0 .55-.2.95-.79 1.07l-.14-.3c.52-.09.56-.46.55-.88 0-.57 0-1.13 0-1.73h.34v1.31l.39.32a.6.6 0 0 0 .56-.68v-2.13h.34v2.59a1.11 1.11 0 0 0 1 .21v-2.8h.31v3.06a1.69 1.69 0 0 1 -1.48-.19z"/><path d="m28.34 26.12c.12.53-.06 1.05.15 1.58h.81c-.18-.5-.29-1 .17-1.4a1.3 1.3 0 0 1 1.45-.05l-.09.27-.44-.08c-.7-.08-1.05.38-.78 1a1.84 1.84 0 0 0 .21.28h1.25l-.12.34c-.74 0-1.49 0-2.23 0-.47 0-.67-.24-.69-.71 0-.29 0-.59 0-.87a.58.58 0 0 0 -.82.07.65.65 0 0 0 -.18.7c.13.42.47.49.89.47l-.13.3c-.74 0-1.2-.38-1.18-1s.54-1.02 1.73-.9z"/><path d="m37.09 3.3-.33-.3.06-.33c-.12-.1-.25-.19-.36-.3a1 1 0 0 1 .13-1.48 1 1 0 0 1 1.47.2 1.07 1.07 0 0 1 -.06 1.31c-.31.3-.61.6-.91.9zm.14-2.11c-.42.23-.53.37-.45.61a.44.44 0 0 0 .42.34.49.49 0 0 0 .49-.34c.06-.23-.06-.39-.46-.61z"/><path d="m30.35 1.71a1 1 0 0 1 -1 1 1 1 0 0 1 -1-1.07 1 1 0 0 1 1.01-.95 1 1 0 0 1 .99 1.02zm-1-.52c-.4.24-.51.4-.43.63a.48.48 0 0 0 .5.32.44.44 0 0 0 .4-.36c.03-.24-.08-.38-.51-.59z"/><path d="m31.23 1.94v-.49h3.52v.49z"/><path d="m13.78 2.57c-.65-.18-.87-.45-.8-.95a.8.8 0 0 1 1.58 0c.08.47-.13.75-.78.95z"/><path d="m20.06 2.58c-.65-.18-.9-.46-.84-.91a.8.8 0 0 1 .78-.73.83.83 0 0 1 .8.65c.1.46-.11.74-.74.99z"/><path d="m11.78 2.58c-.65-.22-.85-.48-.77-1a.8.8 0 0 1 .8-.65.77.77 0 0 1 .76.68.79.79 0 0 1 -.79.97z"/><path d="m18 2.58c-.68-.25-.87-.52-.75-1a.78.78 0 0 1 .77-.61.78.78 0 0 1 .77.67c.11.48-.09.72-.79.94z"/><path d="m7 12.88a.77.77 0 0 1 -.8-.82.75.75 0 0 1 .8-.75.77.77 0 0 1 .81.75.8.8 0 0 1 -.81.82z"/><path d="m8 1.06.27.48-2.68 1.46-.27-.47z"/><path d="m38.12 13.65-2.72 1.43-.25-.48 2.68-1.42z"/><path d="m11.68 28.09h-.28v-3.15h.25a17.14 17.14 0 0 1 .03 3.15z"/><path d="m31.64 24.94h.28v3.12h-.24a16.54 16.54 0 0 1 -.04-3.12z"/><path d="m32.32 29-.14-.31a.72.72 0 0 0 .57-.84c0-.58 0-1.17 0-1.77h.31c0 .14 0 .27.05.4v1.52a.94.94 0 0 1 -.79 1z"/><path d="m24.73 24.92.27.08v3.11h-.28z"/><path d="m15.38 25.7h-.38v-.39h.38z"/><path d="m7.66 25.66v-.33l.34-.07c0 .08.07.13.08.18s-.14.29-.42.22z"/><path d="m6.89 25.29h.33v.38h-.31z"/><path d="m16.11 25.7h-.34v-.37h.31z"/><path d="m27.4 25.71c-.38 0-.31-.22-.28-.42h.31z"/><path d="m27.89 25.28h.29c.16.16.09.31-.21.42z"/><path d="m34.28 25.25v.42h-.32v-.39z"/><path d="m67.89 20.16-.84 1.42a29 29 0 0 0 -3.6.14l1.91 1.85-1.14 1a3.66 3.66 0 0 1 -.35-.31 14.78 14.78 0 0 0 -3.42-2.68 23.76 23.76 0 0 0 -7.79-2.75 28.1 28.1 0 0 0 -4.09-.44 22.49 22.49 0 0 0 -3.18 0c-.21 0-.43 0-.67 0l-.37-1.39a19 19 0 0 1 3-.15c1 0 2 .06 3 .11a7.45 7.45 0 0 1 .88-2.96l-6.37-3.69.57-1.4c2.28 1.27 4.48 2.59 6.72 3.86l1.12-.88-4.13-7.38 1.26-.85 4.25 7.57 1.35-.23v-8.95h1.47v8.95l1.32.33 4.21-7.61.78.51.46.36-4.1 7.41 1.07.87 6.66-3.87a4.21 4.21 0 0 1 .58 1.42l-6.27 3.58.8 2.15c1 0 2-.09 3-.08s2 .1 3.13.15l-.27 1.49a37.58 37.58 0 0 0 -5.51 0 32.22 32.22 0 0 0 -5.41.92c.14.08.22.15.31.19 1 .5 2 1 3.08 1.47a1 1 0 0 0 .61.12 20.93 20.93 0 0 1 4.1-.32zm-6.59-3.81c0-2-2.41-4-4.9-3.87a4.68 4.68 0 0 0 -4.5 4.63l.31.11c.89.17 1.78.31 2.66.52a1.54 1.54 0 0 0 .85 0c1.05-.3 2.11-.62 3.17-.88.79-.23 1.61-.35 2.41-.51z"/><path d="m61.55 26.1-1.47.51a20 20 0 0 0 -13.08-4.1l-1.1-1.51h3.1a24 24 0 0 1 4.47.68 19.78 19.78 0 0 1 7 3.32c.2.15.39.33.58.5l.5.41z"/></g></svg>