<svg viewBox="0 0 339 286.19" xmlns="http://www.w3.org/2000/svg" xmlns:xlink="http://www.w3.org/1999/xlink"><clipPath id="a"><path d="m86.67 69.52a35.35 35.35 0 0 0 -10.32 3.82l37.88 1.83a47.07 47.07 0 0 0 -12.41-5.33 1.57 1.57 0 0 1 -1.14-1.21 16.12 16.12 0 0 1 .37-7.56l1.26-4.3-13.23-.64.6 6.48a13.12 13.12 0 0 1 -.2 3.75l-.08.39a3.49 3.49 0 0 1 -2.73 2.77z"/></clipPath><clipPath id="b"><path d="m232.61 77.25a35.43 35.43 0 0 0 -11.05-4.53 1.64 1.64 0 0 1 -1.25-1.36l-.16-1.1a12.81 12.81 0 0 1 0-3.76l.91-6.44h-13.26l1 4.36a16.23 16.23 0 0 1 .45 4c0 .89.09 3-.59 3.68-.43.42-1.52.41-2.09.54-1 .22-1.9.47-2.83.75-1.59.48-3.15 1-4.68 1.68a37.58 37.58 0 0 0 -4.43 2.13h9c-2.91 3-5.8 7.59-7.29 14.66-3.66 17.37 10 19.88 10 19.88h15.17l10-6.69v-19.16l-6.16-8.64z"/></clipPath><path d="m65 268.82a24.08 24.08 0 0 1 -6-6.84c-5.42-9.46-3-21.06-1.57-31.77 2.1-15.68 1.71-32-4.33-46.75-7.23-17.59-21.82-31.31-32.25-47.35-9.55-14.75-17.21-38.33-5.4-54.21 5.36-7.22 16.33-12 23.35-17.87 8.48-7.03 16.2-15.09 21.51-24.65 4.53-8.14 7.3-17.26 13.16-24.58 8.46-10.57 23.27-16.09 36.94-13.8 17.46 3 31.48 17.26 49.15 18.63 15.49 1.21 29.8-7.81 45.18-9.94 18.32-2.52 37.79 5.76 48.15 20.48 7.77 11 11.05 25.51 22.28 33.32 10.51 7.3 24.82 6.5 36.91 11 16.09 6 27.38 22.27 26.91 38.84-.48 16.72-11.55 31.66-13.42 48.29-1.55 13.79 3.35 27.68 1.84 41.47-1.13 10.33-5.81 20.13-6.31 30.51-.26 5.52.66 11.2-1 16.51-2 6.42-7.41 11.3-13.07 15.22-27.19 18.79-62.87 21.95-96.27 19.66s-66.52-9.36-100-8.46c-9.5.26-19.08 1.15-28.44-.45a38.33 38.33 0 0 1 -17.32-7.26z" fill="#f2f2f2"/><path d="m222.68 286.19h-1v-1h3v1zm-4 0-3.06-.07v-1l3 .07zm9.16 0v-1c1 0 2.05-.05 3-.09v1c-.98-.02-2.01.01-3.04.03zm-15.31-.19-3.05-.14.05-1 3 .14zm21.38-.07v-1c1-.05 2-.11 3-.18l.06 1zm-27.48-.25-2-.12-1.08-.08.07-1 1.08.07 2 .13zm33.57-.18-.08-1 3-.28.1 1zm-39.67-.27-3-.25.08-1 3 .26zm45.75-.33-.11-1 3-.38.14 1c-.98.13-2 .26-3.02.38zm-51.83-.2-3-.29.1-1 3 .3zm-6.08-.61-3-.32.11-1 3 .32zm64 0-.15-1c1-.15 2-.32 3-.49l.18 1c-1.02.16-2.04.32-3.05.48zm-70-.65-3-.35.11-1 3 .35zm76.05-.4-.19-1c1-.19 2-.4 3-.61l.22 1c-1.07.2-2.07.41-3.08.57zm-82.11-.31-3-.36.12-1 3 .36zm-6.11-.73-3-.37.12-1 3 .37zm94.15-.25-.24-1 2.95-.74.26 1q-1.47.37-2.97.73zm-100.15-.5-3-.37.12-1 3 .37zm-6-.74-3-.36.12-1 3 .35zm112.16-.33-.28-1c1-.28 2-.58 2.9-.88l.31 1c-1.09.29-2.04.59-3.03.88zm-118.22-.37-3-.34.11-1 3 .34zm-6.06-.67-3-.31.1-1 3 .31zm-6.06-.61-3-.27.08-1c1 .08 2 .18 3 .27zm136.18-.2-.33-1c.95-.33 1.91-.67 2.85-1l.36.95c-1.05.37-2.02.72-2.98 1.05zm-142.35-.33-3-.23.08-1 3 .23zm-6.07-.43-3-.18v-1l3 .17zm-38.89 0h-.69v-1h.69 2.34v1zm-3.76-.07c-1.05 0-2.08-.09-3.07-.16l.08-1c1 .08 2 .13 3 .17zm9.18 0v-1l3.05-.11v1zm27.39-.21-3-.12v-1l3.05.11zm-21.3 0v-1l3-.11v1zm15.21-.18h-3v-1h3.06zm-9.12 0v-1h3.06v1zm-27.48 0c-1-.11-1.92-.25-2.83-.41h-.22l.18-1h.21c.9.16 1.83.29 2.78.4zm202.82-.84-.38-.94c.93-.38 1.88-.78 2.79-1.18l.41.93c-.93.32-1.87.72-2.82 1.11zm-208.88-.27c-1-.24-2-.52-3-.83l.31-1c.94.3 1.92.58 2.9.82zm-5.88-1.88c-1-.39-1.91-.82-2.81-1.27l.45-.91c.88.44 1.8.86 2.75 1.24zm220.37-.34-.44-.92c.92-.43 1.83-.88 2.73-1.34l.46.91c-.9.41-1.83.86-2.75 1.3zm-225.88-2.49a30.23 30.23 0 0 1 -2.55-1.77l.62-.8a29.67 29.67 0 0 0 2.46 1.7zm231.34-.35-.49-.89c.88-.48 1.77-1 2.63-1.5l.52.88c-.87.51-1.77 1.02-2.66 1.51zm-234.29-1.73a25.57 25.57 0 0 1 -2.31-2.07l.72-.71a26.76 26.76 0 0 0 2.23 2zm239.59-1.38-.54-.86c.85-.54 1.71-1.11 2.54-1.67l.57.84c-.87.57-1.73 1.14-2.57 1.69zm-243.92-3a21.72 21.72 0 0 1 -1.72-2.57l.89-.48a23.59 23.59 0 0 0 1.65 2.47zm249-.44-.61-.81c.84-.63 1.64-1.26 2.37-1.88l.66.78c-.79.6-1.6 1.24-2.5 1.88zm4.71-4-.71-.73c.74-.72 1.43-1.46 2-2.19l.78.66c-.63.75-1.35 1.51-2.11 2.26zm-256.79-.98a23.21 23.21 0 0 1 -1-3l1-.26a23.49 23.49 0 0 0 .9 2.85zm260.78-3.76-.84-.56a21.75 21.75 0 0 0 1.47-2.58l.92.43a22.41 22.41 0 0 1 -1.59 2.71zm-262.46-2.22c-.15-1-.26-2-.33-3.08l1-.06c.07 1 .18 2 .33 3zm265.09-3.43-1-.28a19.16 19.16 0 0 0 .61-2.91l1 .14a21 21 0 0 1 -.61 3.05zm-264.5-2.74h-1c0-1 0-2 .1-3.07l1 .06c-.01 1.05-.09 2.07-.1 3.03zm265.4-3.39h-1c0-.63 0-1.29 0-2v-1h1v1c.04.7.03 1.38 0 2.02zm-265-2.65-1-.1c.09-.94.2-1.94.34-3l1 .12c-.19 1.08-.3 2.07-.39 3zm264-3.46c0-.69 0-1.25 0-1.75s0-.91 0-1.32h1v1.3s0 1.05 0 1.73zm-263.31-2.55-1-.14.24-1.67c.06-.45.13-.9.19-1.35l1 .14c-.07.45-.13.9-.2 1.35s-.14 1.11-.23 1.67zm264.45-3.48-1-.1c.09-1 .23-2 .4-3.06l1 .16c-.17 1.03-.3 2.04-.39 3zm-263.6-2.57-1-.13c.12-1 .24-2 .35-3l1 .11c-.11.98-.2 2-.35 3.02zm264.56-3.4-1-.21c.2-.94.43-1.91.69-3l1 .25c-.28 1.07-.5 2.04-.69 2.96zm-263.93-2.69-1-.08c.08-1 .15-2 .2-3l1 .06c-.05.95-.12 2-.2 3.02zm265.37-3.2-1-.27c.23-.88.47-1.75.71-2.63l.09-.31 1 .27-.09.31c-.24.87-.48 1.76-.71 2.63zm-265.03-2.87h-1c0-1 .05-2 .05-3h1c-.01.9-.02 1.93-.05 3zm266.63-3-1-.26c.29-1.1.54-2.06.75-2.95l1 .24c-.2.87-.46 1.85-.75 2.97zm-267.64-3.14c0-1-.08-2-.14-3l1-.06c.06 1 .1 2 .13 3.06zm269.05-2.86-1-.2c.21-1 .38-2 .53-3l1 .15c-.14 1.05-.32 2.05-.53 3.05zm-269.42-3.19c-.1-1-.21-2-.34-3l1-.13c.13 1 .24 2 .34 3.05zm270.3-2.88-1-.09c.08-1 .13-2 .16-3h1c-.02 1.06-.07 2.1-.16 3.09zm-271.08-3.13c-.17-1-.36-2-.56-3l1-.21c.21 1 .4 2 .57 3zm270.22-3c0-1-.07-2-.14-3l1-.07c.06 1.08.11 2.08.14 3.07zm-271.46-2.93c-.25-1-.52-2-.8-2.92l1-.29c.29 1 .56 2 .81 3zm271.08-3.12c-.09-.92-.19-1.91-.31-3l1-.11c.12 1.11.22 2.11.31 3zm-272.81-2.68c-.33-.95-.69-1.9-1.06-2.83l.95-.38c.37.94.73 1.91 1.07 2.88zm272.14-3.36-.14-1.16c-.07-.62-.15-1.25-.23-1.87l1-.12c.08.62.15 1.24.23 1.87l.14 1.15zm-274.38-2.26c-.41-.9-.85-1.81-1.31-2.73l.9-.45c.47.92.92 1.85 1.33 2.76zm273.67-3.81c-.12-1.1-.22-2.1-.31-3l1-.09c.08.94.18 1.93.3 3zm-276.4-1.59c-.48-.86-1-1.75-1.51-2.63l.87-.52c.53.89 1.05 1.78 1.53 2.66zm275.87-4.51c-.06-1.06-.1-2.09-.12-3.06h1c0 1 .05 2 .11 3zm-279-.7c-.53-.82-1.09-1.68-1.67-2.53l.84-.57c.58.86 1.15 1.72 1.68 2.56zm-3.4-5c-.57-.79-1.16-1.62-1.78-2.46l.82-.6c.62.84 1.22 1.68 1.79 2.48zm283.31-.37h-1c0-1 .1-2.08.2-3.07l1 .1c-.08.9-.15 1.91-.18 2.94zm-286.89-4.56c-.58-.76-1.18-1.55-1.85-2.41l.8-.62c.67.86 1.28 1.66 1.86 2.42zm287.49-1.47-1-.17c.16-1 .35-2 .58-3l1 .22q-.34 1.51-.58 2.95zm-291.21-3.35-1.89-2.39.8-.63 1.89 2.4zm292.51-2.55-1-.27c.26-.94.55-1.93.86-2.94l1 .3c-.32 1-.61 1.98-.86 2.91zm-296.28-2.24-1.88-2.41.8-.62 1.88 2.4zm298.09-3.55-1-.33c.31-.91.65-1.85 1-2.88l1 .35c-.35 1.03-.69 1.96-1 2.86zm-301.83-1.28c-.66-.86-1.26-1.66-1.84-2.44l.82-.61c.58.79 1.18 1.58 1.83 2.44zm303.93-4.47-.94-.36 1-2.68.07-.17.94.37-.06.17zm-307.57-.48c-.61-.85-1.21-1.69-1.76-2.5l.83-.58c.56.81 1.15 1.64 1.75 2.49zm-3.47-5-.08-.13c-.52-.81-1-1.64-1.54-2.48l.87-.52c.49.83 1 1.65 1.52 2.45l.08.12zm313.25-.16-.95-.37c.4-1.05.75-2 1.07-2.84l.95.35zm-316.39-5.12c-.49-.89-1-1.8-1.42-2.72l.91-.45c.45.9.92 1.81 1.4 2.69zm318.49-.62-1-.34c.35-1 .66-1.95.95-2.88l1 .3c-.28.94-.57 1.89-.95 2.92zm-321.22-4.87c-.41-.94-.82-1.89-1.19-2.83l.94-.38c.37.93.77 1.87 1.18 2.79zm323-1-1-.27c.27-1 .5-2 .71-2.93l1 .21c-.17.97-.41 1.98-.68 3zm-325.28-4.7c-.34-1-.66-2-1-2.92l1-.3c.29 1 .61 1.92.94 2.88zm326.59-1.31-1-.15c.16-1 .28-2 .36-3l1 .08c-.07 1.01-.2 2.04-.36 3.07zm-328.37-4.57c-.25-1-.48-2-.68-3l1-.2c.19 1 .42 2 .67 3zm328.88-1.57h-1v-.22c0-.92 0-1.86-.11-2.78l1-.08c.08.95.12 1.91.12 2.86zm-330.08-4.47c-.14-1-.26-2.06-.34-3.06l1-.08c.08 1 .2 2 .34 3zm328.59-1.53c-.16-1-.36-2-.6-2.94l1-.25c.24 1 .45 2 .61 3zm-329.08-4.6v-.59c0-.84 0-1.68.07-2.49l1 .06c-.05.79-.07 1.61-.07 2.43v.59zm327.65-1.22c-.32-1-.67-1.9-1.06-2.82l.94-.39c.4 1 .76 1.92 1.08 2.89zm-326.3-4.78-1-.15c.15-1 .34-2 .57-3l1 .24c-.2.91-.39 1.91-.57 2.91zm324-.79c-.45-.89-.94-1.78-1.45-2.63l.87-.53c.53.88 1 1.79 1.49 2.7zm-322.58-5.07-1-.32c.34-1 .72-2 1.14-2.88l.93.42a28.19 28.19 0 0 0 -1.07 2.78zm319.47-.09c-.58-.82-1.19-1.63-1.82-2.4l.79-.64c.64.79 1.27 1.62 1.86 2.46zm-3.8-4.67c-.69-.73-1.41-1.45-2.14-2.12l.69-.75c.75.69 1.49 1.42 2.19 2.17zm-313.19-.68-.9-.51a29.7 29.7 0 0 1 1.74-2.59l.82.61a29.11 29.11 0 0 0 -1.66 2.49zm308.76-3.41c-.78-.62-1.59-1.23-2.41-1.79l.57-.84c.84.58 1.68 1.2 2.48 1.84zm-305.17-1.35-.73-.7c.67-.7 1.43-1.41 2.26-2.12l.66.77c-.8.69-1.54 1.38-2.19 2.05zm300.21-2c-.86-.51-1.76-1-2.65-1.42l.44-.91c.92.44 1.84.93 2.72 1.45zm-295.7-1.94-.61-.81c.76-.58 1.57-1.16 2.49-1.8l.58.84c-.88.62-1.68 1.2-2.46 1.77zm290.26-.74-.68-.26c-.69-.25-1.42-.5-2.16-.74l.31-1c.76.24 1.5.5 2.21.76l.69.27zm-5.75-1.84c-.92-.24-1.89-.47-2.94-.7l.22-1c1.07.24 2 .48 3 .72zm-279.51-.88-.56-.85c.85-.56 1.7-1.1 2.57-1.66l.55.85zm273.61-.44c-1-.21-2-.4-3-.57l.19-1c.95.17 2 .37 3 .57zm-6-1.13-3-.59.21-1 3 .59zm-6-1.25c-1.06-.26-2-.51-3-.78l.28-1c.92.26 1.88.51 2.93.76zm-256.48-.49-.55-.85c1-.64 1.78-1.18 2.53-1.69l.57.84c-.75.52-1.56 1.06-2.55 1.7zm250.61-1.23c-1-.35-2-.73-2.87-1.13l.41-.93c.88.39 1.82.76 2.79 1.1zm-245.56-2.26-.61-.81c.57-.44 1.12-.87 1.62-1.29l.73-.61.65.78-.73.61c-.51.43-1.07.87-1.66 1.32zm239.92-.23c-.87-.49-1.72-1-2.51-1.56l-.12-.09.58-.83.12.08c.77.53 1.58 1 2.42 1.51zm-5.1-3.51a30 30 0 0 1 -2.22-2.16l.74-.69c.69.74 1.42 1.44 2.15 2.08zm-230.11-.19-.67-.81c.77-.68 1.52-1.36 2.25-2l.69.74c-.73.69-1.49 1.38-2.27 2.07zm4.48-4.18-.71-.72c.73-.72 1.45-1.44 2.14-2.16l.73.71c-.69.72-1.42 1.45-2.16 2.17zm221.42-.18c-.61-.77-1.23-1.61-1.83-2.48l.84-.57c.59.85 1.19 1.67 1.79 2.42zm-217.17-4.24-.76-.68c.68-.75 1.35-1.52 2-2.29l.78.66c-.64.77-1.33 1.55-2.02 2.31zm213.68-.83c-.51-.83-1-1.7-1.54-2.65l.89-.5c.52 1 1 1.81 1.52 2.62zm-209.74-3.87-.81-.62c.63-.81 1.24-1.62 1.81-2.43l.83.59c-.58.82-1.2 1.65-1.83 2.46zm206.75-1.51c-.4-.77-.83-1.61-1.39-2.72l.91-.45c.55 1.1 1 1.93 1.38 2.71zm-203.19-3.49-.85-.51c.55-.85 1.09-1.72 1.59-2.57l.88.51c-.51.83-1.06 1.71-1.62 2.57zm200.42-1.93-1.38-2.71.9-.47c.41.79.84 1.63 1.39 2.72zm-197.31-3.36-.9-.48c.44-.84.89-1.72 1.37-2.71l.91.45c-.48.99-.93 1.89-1.38 2.74zm194.49-2c-.53-.94-1-1.8-1.52-2.62l.86-.53c.51.84 1 1.7 1.55 2.66zm-191.8-3.5-.92-.43c.33-.72.66-1.45 1-2.17l.27-.6.93.42-.28.6c-.33.73-.66 1.46-1 2.18zm188.64-1.72-.37-.54c-.45-.63-.93-1.27-1.41-1.89l.8-.63c.49.64 1 1.29 1.44 1.94l.38.55zm-186.08-3.82-.92-.43c.48-1 .91-1.93 1.33-2.76l.91.46c-.41.82-.8 1.72-1.32 2.73zm182.35-.87c-.67-.74-1.37-1.47-2.09-2.17l.71-.73c.73.72 1.45 1.46 2.14 2.22zm-4.32-4.2c-.76-.65-1.55-1.28-2.35-1.89l.61-.81c.82.62 1.62 1.26 2.4 1.93zm-175.3-.34-.89-.5c.52-.94 1-1.81 1.55-2.65l.86.54c-.51.84-1.01 1.67-1.52 2.61zm92.93-1.48c-.48 0-1 0-1.43 0v-1h3v1zm-4.51-.29c-1-.12-2-.29-3-.5l.2-1c1 .2 2 .36 3 .48zm9.24 0-.11-1c1-.11 2-.25 3-.43l.17 1c-1.05.19-2.07.34-3.06.43zm6.06-1-.22-1c.94-.21 1.93-.45 2.94-.72l.26 1c-1.03.24-2.03.49-2.98.72zm-21.35-.17c-1-.27-1.94-.58-2.93-.92l.32-1c1 .34 1.95.64 2.89.9zm88.11-.33c-.83-.55-1.69-1.09-2.56-1.6l.51-.87c.88.51 1.76 1.06 2.61 1.62zm-60.83-1.06-.29-1c.9-.27 1.85-.56 2.91-.9l.3 1c-1.06.32-2.02.61-2.92.88zm-33.1-.6c-.9-.36-1.85-.76-2.82-1.2l.41-.93c1 .43 1.9.83 2.79 1.19zm-73.35-.17-.83-.59c.39-.54.79-1.07 1.2-1.58l.71-.85.77.66c-.23.27-.47.55-.69.83-.39.47-.78.99-1.16 1.51zm112.28-1.07-.32-1 1.52-.5 1.38-.46.31 1-1.38.45zm49.78-.14c-.89-.45-1.81-.88-2.73-1.28l.41-.93c.93.4 1.87.85 2.78 1.31zm-94.31-1.11c-.85-.41-1.75-.86-2.74-1.36l.46-.91c1 .5 1.88.95 2.72 1.35zm50.32-.64-.31-1c1.07-.34 2-.63 2.93-.9l.29 1c-.9.25-1.85.54-2.91.88zm38.46-.71c-.94-.35-1.9-.67-2.86-1l.3-1c1 .3 2 .63 2.91 1zm-152.63-.91-.71-.72c.72-.72 1.5-1.41 2.29-2.07l.65.78c-.77.64-1.54 1.32-2.23 2.01zm120-.13-.31-.96c1-.28 2-.53 3-.75l.22 1c-.92.19-1.88.43-2.91.75zm-61.61-.39-1.8-.94-.9-.47.47-.9.9.47 1.8.94zm88.47-.3c-1-.24-2-.46-2.95-.64l.18-1c1 .19 2 .41 3 .65zm-21-.66-.18-1c.79-.15 1.58-.27 2.35-.38l.69-.09.12 1-.67.09c-.71.11-1.48.24-2.27.38zm15-.44c-1-.12-2-.21-3-.28l.06-1c1 .06 2.05.16 3.07.29zm-9-.29-.06-1c1-.06 2-.08 2.93-.08h.14v1h-.14c-.93-.01-1.9.02-2.84.08zm-78.88-1.12-2.71-1.37.45-.91 2.73 1.37zm-48.36-.51-.59-.83c.84-.59 1.71-1.15 2.6-1.68l.51.88c-.86.51-1.71 1.06-2.52 1.63zm42.91-2.16c-1-.45-1.88-.85-2.78-1.22l.39-.94c.91.38 1.83.78 2.81 1.23zm-37.74-.91-.45-.91q1.35-.67 2.82-1.27l.38.94c-.93.39-1.85.8-2.75 1.24zm32.15-1.42c-1-.35-1.94-.67-2.87-.95l.3-1c.94.28 1.92.61 2.91 1zm-26.57-.83-.31-1c1-.31 2-.59 3-.83l.24 1c-1 .25-1.98.53-2.93.83zm20.79-.93c-.81-.19-1.63-.36-2.43-.49l-.52-.09.15-1 .54.08c.82.14 1.66.31 2.49.51zm-14.94-.5-.16-1c1-.16 2-.29 3.06-.38l.09 1c-1 .12-2 .25-2.99.41zm9-.42c-.9-.06-1.81-.09-2.71-.09h-.3v-.99h.3c.93 0 1.87 0 2.79.1z" fill="#999"/><path d="m105.61 248-.58 3.38a2.79 2.79 0 0 0 2 3.15l23.69 6.93a2 2 0 0 0 2.21-.82c1.38-2.1 2.27-6.84-11.08-12.24z" fill="#1a1a1a"/><path d="m133.24 260.08a5.25 5.25 0 0 1 -.4.75 2 2 0 0 1 -2.22.81l-23.68-6.92a2.8 2.8 0 0 1 -2-3.15v-.18z" fill="#fff"/><path d="m119.23 252.57a.31.31 0 0 1 -.29-.24.3.3 0 0 1 .23-.35c2.9-.62 4-1.52 4.36-2.17a1.13 1.13 0 0 0 .19-.88.31.31 0 0 1 .2-.37.3.3 0 0 1 .37.19 1.72 1.72 0 0 1 -.23 1.33c-.64 1.1-2.24 1.94-4.77 2.48z" fill="#fff"/><path d="m122.32 254.55a.3.3 0 0 1 -.28-.24.29.29 0 0 1 .22-.35c2.91-.62 4-1.53 4.36-2.17a1.23 1.23 0 0 0 .2-.88.29.29 0 0 1 .56-.18 1.72 1.72 0 0 1 -.23 1.33c-.64 1.1-2.24 1.94-4.76 2.48z" fill="#fff"/><path d="m100.85 109.09-15.15-.73-9.63-7.15.93-19.21 8.8-11.15 11.2-1.74s12 3.09 14.82 20.62-10.97 19.36-10.97 19.36z" fill="#f4aec5"/><g clip-path="url(#a)"><path d="m76.35 56.13h37.88v1.78h-37.88z" fill="#e094ae"/><path d="m76.35 57.91h37.88v.54h-37.88z" fill="#e094ae"/><path d="m76.35 58.45h37.88v.54h-37.88z" fill="#e397b1"/><path d="m76.35 58.99h37.88v.54h-37.88z" fill="#e59bb4"/><path d="m76.35 59.54h37.88v.54h-37.88z" fill="#e89eb6"/><path d="m76.35 60.08h37.88v.54h-37.88z" fill="#eaa0b9"/><path d="m76.35 60.62h37.88v.54h-37.88z" fill="#eca3bb"/><path d="m76.35 61.17h37.88v.54h-37.88z" fill="#eea5bd"/><path d="m76.35 61.71h37.88v.54h-37.88z" fill="#f0a8bf"/><path d="m76.35 62.25h37.88v.54h-37.88z" fill="#f1aac0"/><path d="m76.35 62.8h37.88v.54h-37.88z" fill="#f3acc2"/><path d="m76.35 63.34h37.88v.54h-37.88z" fill="#f4adc4"/><path d="m76.35 63.88h37.88v.54h-37.88z" fill="#f5afc5"/><path d="m76.35 64.43h37.88v.54h-37.88z" fill="#f7b1c6"/><path d="m76.35 64.97h37.88v.54h-37.88z" fill="#f8b2c7"/><path d="m76.35 65.51h37.88v.54h-37.88z" fill="#f9b3c8"/><path d="m76.35 66.05h37.88v.54h-37.88z" fill="#fab4c9"/><path d="m76.35 66.6h37.88v.54h-37.88z" fill="#fab5ca"/><path d="m76.35 67.14h37.88v.54h-37.88z" fill="#fbb6cb"/><path d="m76.35 67.68h37.88v.54h-37.88z" fill="#fcb7cb"/><path d="m76.35 68.23h37.88v.54h-37.88z" fill="#fcb7cc"/><path d="m76.35 68.77h37.88v.54h-37.88z" fill="#fdb8cd"/><path d="m76.35 69.31h37.88v.54h-37.88z" fill="#fdb9cd"/><path d="m76.35 69.86h37.88v.54h-37.88z" fill="#fdb9cd"/><path d="m76.35 70.4h37.88v.54h-37.88z" fill="#feb9ce"/><path d="m76.35 70.94h37.88v.54h-37.88z" fill="#febace"/><path d="m76.35 71.49h37.88v.54h-37.88z" fill="#febace"/><path d="m76.35 72.03h37.88v.54h-37.88z" fill="#febace"/><path d="m76.35 72.57h37.88v.54h-37.88z" fill="#ffbacf"/><g fill="#ffbbcf"><path d="m76.35 73.11h37.88v.54h-37.88z"/><path d="m76.35 73.66h37.88v.54h-37.88z"/><path d="m76.35 74.2h37.88v.54h-37.88z"/><path d="m76.35 74.74h37.88v.42h-37.88z"/></g></g><path d="m117.47 114.87 27.79-7.52 1.62 5.84-26.13 13s-9.4 2.45-8.72-4.57a7.6 7.6 0 0 1 5.44-6.75z" fill="#f4aec5"/><path d="m105.05 246.39.22-35.65a2.4 2.4 0 0 0 0-.37c-.27-1.71-.59-3.38-.73-5.13-.58-7.16-2.35-11 5.51-13 10.49-2.57 10.49 6.67 10.49 6.67l.29 47.32a2.26 2.26 0 0 1 -2.23 2.28l-11.23.12a2.27 2.27 0 0 1 -2.32-2.24z" fill="#666"/><path d="m75.08 197.49-5.39-50s-1.8-14.4 15.92-10.61c0 0 6.37.38 7.12 7.58s-2.73 53.03-2.73 53.03-8.36 9.09-14.92 0z" fill="#666"/><path d="m104.78 198.1-13.37-49s-4.13-14.3 14.88-12.22a8.84 8.84 0 0 1 8.6 6.92c1.91 7.17 5.5 53.63 5.5 53.63s-7.39 9.17-15.61.67z" fill="#666"/><path d="m72.1 247.45 2-36.49v-.3a35 35 0 0 1 .26-5.2c.59-8.16-1.84-11.17 6-12.37 10.44-1.6 9.86 7.58 9.86 7.58l-2.64 47a2.4 2.4 0 0 1 -2.39 2.26l-10.69.07a2.39 2.39 0 0 1 -2.4-2.55z" fill="#666"/><path d="m85.45 68.79s11.86 7.86 16.54.73l7.44 3 5.89 2.48c3.71 2.48 5.26 6.77 5.91 11.38l4.93 25.75-13.55 10.43-2.61-22.48 4.74 39.6-46.28 4.75 14-47.74-12.71-1.57 3.25-20.25z" fill="#005c22"/><path d="m71.54 124.24 35.06 16 2.89-6.32-32.28-20.55s-9.4-4.08-10.07 3.15a7.57 7.57 0 0 0 4.4 7.72z" fill="#f4aec5"/><ellipse cx="95.81" cy="44.21" fill="#f4aec5" rx="17.82" ry="14.2" transform="matrix(.04832679 -.99883158 .99883158 .04832679 47.03 137.77)"/><path d="m73.48 249.94s-3.48 15.56 6.29 18.87c10.42 3.54 6.49-18.87 6.49-18.87z" fill="#1a1a1a"/><path d="m80.21 257.46a5.73 5.73 0 0 1 -3.38-1.2.3.3 0 0 1 0-.42.29.29 0 0 1 .41 0 4.66 4.66 0 0 0 5.92 0 .3.3 0 1 1 .36.47 5.33 5.33 0 0 1 -3.31 1.15z" fill="#fff"/><path d="m80.61 261a5.64 5.64 0 0 1 -3.39-1.21.29.29 0 1 1 .39-.44 4.65 4.65 0 0 0 5.92 0 .29.29 0 0 1 .41.05.3.3 0 0 1 -.06.42 5.3 5.3 0 0 1 -3.27 1.18z" fill="#fff"/><path d="m65.72 118.81 4.11-39.1s1.47-8.63 11.61-5.33c0 0 5.4 3.53 3.74 8.37s-2.69 33.53-2.69 33.53l-14.4 4.48a1.84 1.84 0 0 1 -2.37-1.95z" fill="#005c22"/><path d="m84.66 43.82a6 6 0 0 1 -.49-2.66 1.93 1.93 0 0 1 1.75-1.77 2.74 2.74 0 0 1 1.78 1.12 38.64 38.64 0 0 1 3.43 4.49 12.2 12.2 0 0 1 4.4-12.25 11.06 11.06 0 0 0 -.78 8.16 3.78 3.78 0 0 0 3.25-1.78c.77-1 1.28-2.21 2.08-3.19 2-2.44 6.3-2.93 8.2-.41a14.07 14.07 0 0 0 -5.77-10.53c-3.42-2.31-8.31-2.53-11.6 0a10.39 10.39 0 0 1 6.59-2.74 13 13 0 0 0 -15.94 11.15 7.27 7.27 0 0 1 -.42-6.72 26.3 26.3 0 0 0 -3.9 12.83 18 18 0 0 0 1.76 9.77 24.42 24.42 0 0 0 3.57 4.56 41.88 41.88 0 0 0 4.87 5.15c1.09-3.69-1.13-11.82-2.78-15.18z" fill="#1a1a1a"/><path d="m142.94 104.39a24.88 24.88 0 0 1 2.63-4.79 3.18 3.18 0 0 1 1.1-1.3 1 1 0 0 1 1.45.42 1.49 1.49 0 0 1 -.13.92l-1.06 2.79a73.2 73.2 0 0 1 4.75-9.08 2.58 2.58 0 0 1 .93-1 .93.93 0 0 1 1.22.25 1.26 1.26 0 0 1 .06.9 8.45 8.45 0 0 1 -2 4l2.21-3.36a3.35 3.35 0 0 1 1.28-1.33 1.18 1.18 0 0 1 1.59.5c.18.53-.19 1.08-.54 1.52l-3.55 4.5 2.12-2.26c.87-.91 2-1.89 3.19-1.69.3.05.63.21.69.51a.92.92 0 0 1 0 .4 5.46 5.46 0 0 1 -2.19 2.82 20.67 20.67 0 0 0 -3.22 3.19 41.94 41.94 0 0 1 4.42-3.3 1.59 1.59 0 0 1 .9-.34c.66 0 1 .9.84 1.55-.34 1.51-2 2.2-3.28 3.12a7 7 0 0 0 -2.26 2.9c-.31.75-.49 1.56-.87 2.28a9.28 9.28 0 0 1 -3.36 3.16 7.85 7.85 0 0 1 -3.57 1.57c-2.33.18-2.84-1.49-3-3.36s-.99-3.5-.35-5.49z" fill="#f4aec5"/><path d="m234.77 252.85.13 3.42a2.79 2.79 0 0 1 -2.37 2.86l-24.4 3.71a2 2 0 0 1 -2.08-1.1c-1.08-2.27-1.34-7.08 12.62-10.66z" fill="#1a1a1a"/><path d="m205.78 261.13a5.33 5.33 0 0 0 .3.8 2 2 0 0 0 2.09 1.1l24.39-3.71a2.79 2.79 0 0 0 2.37-2.85v-.18z" fill="#fff"/><path d="m220.7 255.56h-.1c-2.43-.88-3.9-1.92-4.39-3.1a1.74 1.74 0 0 1 -.05-1.34.3.3 0 0 1 .4-.14.31.31 0 0 1 .14.39 1.21 1.21 0 0 0 .07.9c.3.69 1.24 1.73 4 2.74a.28.28 0 0 1 .18.37.3.3 0 0 1 -.25.18z" fill="#fff"/><path d="m217.38 257.11h-.1c-2.43-.88-3.91-1.92-4.39-3.1a1.64 1.64 0 0 1 0-1.34.29.29 0 0 1 .39-.14.3.3 0 0 1 .14.39 1.21 1.21 0 0 0 .07.9c.3.69 1.24 1.73 4 2.73a.3.3 0 0 1 .17.38.29.29 0 0 1 -.28.18z" fill="#fff"/><path d="m202.54 252.46.12 3.43a2.78 2.78 0 0 1 -2.37 2.85l-24.39 3.7a2 2 0 0 1 -2.09-1.1c-1.08-2.27-1.33-7.08 12.62-10.66z" fill="#1a1a1a"/><path d="m173.54 260.73a5.33 5.33 0 0 0 .3.8 2 2 0 0 0 2.09 1.1l24.4-3.69a2.79 2.79 0 0 0 2.37-2.86v-.18z" fill="#fff"/><path d="m188.47 255.16h-.1c-2.43-.88-3.91-1.92-4.39-3.1a1.72 1.72 0 0 1 0-1.35.31.31 0 0 1 .4-.14.3.3 0 0 1 .13.39 1.25 1.25 0 0 0 .08.9c.3.7 1.24 1.73 4 2.74a.31.31 0 0 1 .18.38.3.3 0 0 1 -.3.18z" fill="#fff"/><path d="m185.14 256.71a.18.18 0 0 1 -.1 0c-2.43-.87-3.91-1.91-4.39-3.09a1.71 1.71 0 0 1 -.05-1.35.3.3 0 0 1 .4-.14.3.3 0 0 1 .13.39 1.25 1.25 0 0 0 .08.9c.3.69 1.24 1.73 4 2.74a.31.31 0 0 1 .18.38.3.3 0 0 1 -.25.17z" fill="#fff"/><path d="m157.19 133.18a1.86 1.86 0 0 1 -2.31-.2 11 11 0 0 0 -2-1.56 4.69 4.69 0 0 0 -3 .06l-3.51.84a3.79 3.79 0 0 0 -2.65 1.51 1.09 1.09 0 0 0 -.16.52c0 .75 1 .89 1.71.78a43 43 0 0 0 -8.6 2.74c-.59.26-1.3.79-1.1 1.43s1 .63 1.57.51a23.14 23.14 0 0 0 3-.82l-3.57 1.1c-.64.2-1.39.52-1.52 1.22a1.36 1.36 0 0 0 1.33 1.43c1.71.1 3.18-1.06 4.93-.91-1.3-.11-5.94 2.84-3.64 3.47 1.3.37 3.37-.7 4.34-1.47l-1.26 1.17a1.65 1.65 0 0 0 -.66.94c-.33 2.2 5.62-.5 6.7-.68a22.88 22.88 0 0 0 7-2.75 5.84 5.84 0 0 0 1.87-1.36c.46-.56.72-1.26 1.19-1.81.65-.75 1.67-1.17 2.06-2.1a3.28 3.28 0 0 0 -.15-2.38 2.46 2.46 0 0 0 -.63-1.07 2.63 2.63 0 0 0 -2.48-.13" fill="#ffbbcf"/><g clip-path="url(#b)"><path d="m192.7 60.06h39.9v1.33h-39.9z" fill="#e094ae"/><path d="m192.7 61.38h39.9v1.33h-39.9z" fill="#e398b2"/><path d="m192.7 62.71h39.9v1.33h-39.9z" fill="#e69cb5"/><path d="m192.7 64.03h39.9v1.33h-39.9z" fill="#e9a0b8"/><path d="m192.7 65.36h39.9v1.33h-39.9z" fill="#eca3bb"/><path d="m192.7 66.69h39.9v1.33h-39.9z" fill="#eea6bd"/><path d="m192.7 68.01h39.9v1.33h-39.9z" fill="#f0a8bf"/><path d="m192.7 69.34h39.9v1.33h-39.9z" fill="#f2abc1"/><path d="m192.7 70.67h39.9v1.33h-39.9z" fill="#f4adc3"/><path d="m192.7 71.99h39.9v1.33h-39.9z" fill="#f5afc5"/><path d="m192.7 73.32h39.9v1.33h-39.9z" fill="#f7b1c6"/><path d="m192.7 74.65h39.9v1.33h-39.9z" fill="#f8b2c7"/><path d="m192.7 75.97h39.9v1.33h-39.9z" fill="#f9b3c9"/><path d="m192.7 77.3h39.9v1.33h-39.9z" fill="#fab5ca"/><path d="m192.7 78.63h39.9v1.33h-39.9z" fill="#fbb6ca"/><path d="m192.7 79.95h39.9v1.33h-39.9z" fill="#fbb7cb"/><path d="m192.7 81.28h39.9v1.33h-39.9z" fill="#fcb7cc"/><path d="m192.7 82.6h39.9v1.33h-39.9z" fill="#fdb8cc"/><path d="m192.7 83.93h39.9v1.33h-39.9z" fill="#fdb9cd"/><path d="m192.7 85.26h39.9v1.33h-39.9z" fill="#fdb9cd"/><path d="m192.7 86.58h39.9v1.33h-39.9z" fill="#feb9ce"/><path d="m192.7 87.91h39.9v1.33h-39.9z" fill="#febace"/><path d="m192.7 89.24h39.9v1.33h-39.9z" fill="#febace"/><path d="m192.7 90.56h39.9v1.33h-39.9z" fill="#febace"/><path d="m192.7 91.89h39.9v1.33h-39.9z" fill="#ffbacf"/><g fill="#ffbbcf"><path d="m192.7 93.22h39.9v1.33h-39.9z"/><path d="m192.7 94.54h39.9v1.33h-39.9z"/><path d="m192.7 95.87h39.9v1.33h-39.9z"/><path d="m192.7 97.2h39.9v1.33h-39.9z"/><path d="m192.7 98.52h39.9v1.33h-39.9z"/><path d="m192.7 99.85h39.9v1.33h-39.9z"/><path d="m192.7 101.17h39.9v1.33h-39.9z"/><path d="m192.7 102.5h39.9v1.33h-39.9z"/><path d="m192.7 103.83h39.9v1.33h-39.9z"/><path d="m192.7 105.15h39.9v1.33h-39.9z"/><path d="m192.7 106.48h39.9v1.33h-39.9z"/><path d="m192.7 107.81h39.9v1.33h-39.9z"/><path d="m192.7 109.13h39.9v1.33h-39.9z"/><path d="m192.7 110.46h39.9v1.33h-39.9z"/></g></g><path d="m187.35 118.15-30.71 20.85-3.24-6.78 27.14-24.22s8.26-5.59 9.88 1.64a8.11 8.11 0 0 1 -3.07 8.51z" fill="#ffbbcf"/><path d="m251.69 117.64-3.86 35.59-5.9-1.77-2.6-34.05s1.25-9.76 7.89-7a7 7 0 0 1 4.47 7.23z" fill="#ffbbcf"/><ellipse cx="214.66" cy="47.81" fill="#f4aec5" rx="14.2" ry="17.82"/><path d="m203 250.64-.23-36a1.67 1.67 0 0 1 0-.31c.29-1.72.64-3.4.8-5.16.62-7.16 2.53-11-5.95-13-11.31-2.57-11.32 6.67-11.32 6.67l-.3 46.42a1.78 1.78 0 0 0 1.6 1.78l13.4 1.38a1.78 1.78 0 0 0 2-1.78z" fill="#999"/><path d="m232.33 201.42 5.81-50s1.94-14.42-17.14-10.64a8.34 8.34 0 0 0 -7.68 7.58c-.81 7.2 3 53.06 3 53.06s8.93 9.09 16.01 0z" fill="#999"/><path d="m203.24 202 14.42-49s4.46-14.31-16-12.23c0 0-7.21-.25-9.27 6.92s-5.93 53.63-5.93 53.63 7.88 9.22 16.78.68z" fill="#999"/><path d="m235.74 250-2.12-36.49c0-.09 0-.19 0-.29a32.46 32.46 0 0 0 -.29-5.2c-.63-8.16 2-11.18-6.45-12.38-11.26-1.59-10.65 7.58-10.65 7.58l2.86 47a2.51 2.51 0 0 0 2.57 2.27h11.48a2.49 2.49 0 0 0 2.6-2.49z" fill="#999"/><path d="m248.1 152.82c-1.06 7.64-4.55 15.16-8.75 21.56a.92.92 0 0 1 -.35.33c-.67.35-1.18-.51-1.13-1.18.13-2 2.45-3.34 2.57-5.34l-4.81 2.71a2.06 2.06 0 0 1 -1.58.4.79.79 0 0 1 -.6-.71c0-.42.35-.65.67-.85l4.54-2.73a18.86 18.86 0 0 1 -6.2 1.38.55.55 0 0 1 -.39-.12c-.47-.37.19-1 .74-1.18l4.24-1.42a4.68 4.68 0 0 1 -4.39-1.31.45.45 0 0 1 .33-.76c1.59 0 3.19.51 4.8.61 1.9.12 4.2-.79 4.43-2.68a2.4 2.4 0 0 0 -3.53-2.39 9.8 9.8 0 0 0 -1.93 1.93 2 2 0 0 1 -2.46.54c1.53-3.36 4.76-5.63 6.73-8.76a31.72 31.72 0 0 1 1.8-2.89 4.24 4.24 0 0 1 2.81-1.75 3 3 0 0 1 2.66 1.28" fill="#ffbbcf"/><path d="m206 72.64 8.46 8.26 8.4-8.29 12.79 5.39a12.58 12.58 0 0 1 7.23 7.44l11.18 31a7.29 7.29 0 0 1 .33 3.7l-4.2 24.86h-11.19l.37-23.31a9.37 9.37 0 0 0 -.66-3.59l-4.81-12 1.8 16.33 3.5 31.63s-39.11-1.77-46.78-7.67l4.58-19.13a25.49 25.49 0 0 0 .44-9.65l-1.67-11.55-6 12.24a8 8 0 0 1 -2.38 2.86l-21.46 16-7.93-12.23 17.25-14.23a9.15 9.15 0 0 0 2.69-3.69l9.54-24.08a9.65 9.65 0 0 1 5.6-5.49z" fill="#005c22"/><path d="m230.38 47.31c1.07-2.86 1.49-6.28-.2-8.82a2.87 2.87 0 0 1 -1.13 3.93 12.41 12.41 0 0 0 -8.05-13.11 10.26 10.26 0 0 1 2.22 3.05 17 17 0 0 0 -20.22-1.47l4.84.43c-4.87.26-8.46 5.15-9 10s1.19 9.64 2.89 14.21a39.44 39.44 0 0 1 1.1-12.67c.73-2.88 2.32-6.12 5.27-6.51a3.78 3.78 0 0 0 -2.73 4.48 14.43 14.43 0 0 1 10.25-7.83 8.29 8.29 0 0 0 -3.49 4.51q3.39-1.8 6.77-3.61l-.76 6.39 4.42-1.34c-.52 1.89-1 3.78-1.55 5.67 1.68.67 3.52-2.55 4.87-1.35a2.21 2.21 0 0 1 .49.87c1 3 2.07 7.08 1.24 10.12.33-2.37 1.93-4.7 2.77-6.95z" fill="#1a1a1a"/><path d="m209.33 56.33a6.09 6.09 0 1 1 3.54-7.85 6.11 6.11 0 0 1 -3.54 7.85zm-4-10.62a5.27 5.27 0 1 0 6.79 3.06 5.28 5.28 0 0 0 -6.81-3.06z" fill="#fff"/><path d="m223.78 56.33a6.09 6.09 0 1 1 3.54-7.85 6.09 6.09 0 0 1 -3.54 7.85zm-4-10.62a5.27 5.27 0 1 0 6.79 3.06 5.28 5.28 0 0 0 -6.81-3.06z" fill="#fff"/><rect fill="#fff" height="11.11" rx="4.28" width="8.55" x="101.54" y="89.92"/><path d="m104.77 88.16h1.57v4.13h-1.57z" fill="#3a3286" transform="matrix(.94821284 -.31763566 .31763566 .94821284 -23.19 38.21)"/><circle cx="105.85" cy="95.1" fill="#6b7277" r="1.67"/><path d="m108.41 101.1h-5.3v-2.22a1.92 1.92 0 0 1 1.89-1.88h1.49a1.92 1.92 0 0 1 1.91 1.91z" fill="#6b7277"/><g fill="#999"><path d="m147.14 50.7h7.84v1.97h-7.84z" transform="matrix(.97257327 -.23259672 .23259672 .97257327 -7.88 36.56)"/><path d="m150.08 47.76h1.97v7.84h-1.97z" transform="matrix(.97257327 -.23259672 .23259672 .97257327 -7.88 36.55)"/><path d="m29.2 88.05h7.84v1.97h-7.84z" transform="matrix(.43129859 -.90220925 .90220925 .43129859 -61.49 80.52)"/><path d="m32.14 85.11h1.97v7.84h-1.97z" transform="matrix(.43129859 -.90220925 .90220925 .43129859 -61.48 80.51)"/><path d="m280.35 115.93h7.84v1.97h-7.84z" transform="matrix(.43129859 -.90220925 .90220925 .43129859 56.2 322.98)"/><path d="m283.29 112.99h1.97v7.84h-1.97z" transform="matrix(.43129859 -.90220925 .90220925 .43129859 56.19 322.96)"/></g><path d="m233.88 106.65 8.27-22.83a12.35 12.35 0 0 0 -8.27-6.54z" fill="#005c22"/><path d="m195.94 106.65 3.17-31.53-8.96 3.54z" fill="#005c22"/><path d="m157.61 125.52 8.26 11.99 3.69-2.55-9.98-12.39z" fill="#005c22"/><path d="m250.58 144.98 1.15-3.98-13.72-.46 1.17 4.44z" fill="#005c22"/><path d="m260.43 240.42c-3.23-37-8.61-45.35-12.56-45.8-5.9-.65-12.54 15.9-14.6 22.34l-1.12-.36a99.88 99.88 0 0 1 4.77-11.77c3.9-7.94 7.62-11.77 11.08-11.38 6.47.73 10.92 16.06 13.6 46.86z" fill="#f7af31"/><path d="m267.3 236.1-1.17-.12c1.16-10.72 3-18.9 5.48-24.33 2.23-4.88 5-7.68 8.34-8.3 5-.94 10.9 3 17.57 11.68a103 103 0 0 1 8.48 13.17l-1 .55c-.14-.27-13.85-26.3-24.75-24.24-2.91.55-5.42 3.11-7.48 7.63-2.51 5.31-4.32 13.38-5.47 23.96z" fill="#f7af31"/><path d="m264.17 225.51c-2.66-18 .23-31.77 3.12-40.18 3.14-9.12 6.86-13.92 7-14.12l.93.72s-3.78 4.88-6.86 13.84c-2.83 8.27-5.66 21.85-3.05 39.57z" fill="#f7af31"/><path d="m275.6 176c1.12-2.58 5-3.39 8.65-1.8l.48.22a28.72 28.72 0 0 0 2.95-5.77 29.17 29.17 0 0 0 2.4-7.16l-.25-.1c-3.65-1.6-5.7-5-4.57-7.57.74-1.7 2.67-2.63 4.94-2.62a46.82 46.82 0 0 0 -2.54-11s-11.31 4.42-18.17 14c2.7 1.75 4.06 4.55 3.1 6.76s-4.16 3.19-7.42 2.25c-3.33 12.19 1.67 24.82 1.67 24.82a47.44 47.44 0 0 0 10.58-6.24c-1.82-1.79-2.62-4-1.82-5.79z" fill="#005c22"/><path d="m285.33 166.8c-.36.83-1.59 1.09-2.76.58s-1.82-1.59-1.46-2.42 1.6-1.08 2.76-.57 1.82 1.61 1.46 2.41z" fill="#fff"/><path d="m278.37 152.73a1.73 1.73 0 0 1 -2.33.49c-1-.43-1.54-1.34-1.24-2a1.74 1.74 0 0 1 2.34-.49c.98.39 1.54 1.27 1.23 2z" fill="#fff"/><path d="m287.67 140.14c-1.51 4.08-3.13 8.11-4.78 12.13-.82 2-1.68 4-2.51 6l-2.58 6-2.63 6c-.89 2-1.77 4-2.69 5.94-1.81 3.95-3.67 7.88-5.63 11.77 1.51-4.08 3.13-8.12 4.79-12.14.81-2 1.67-4 2.51-6l2.57-6 2.64-6c.89-2 1.77-4 2.69-5.93 1.81-3.91 3.66-7.91 5.62-11.77z" fill="#fff"/><path d="m220.45 249.5a7.21 7.21 0 0 1 9.64-3.41 4.16 4.16 0 0 1 .47.24 57.51 57.51 0 0 0 4.31-8.1 57.7 57.7 0 0 0 4-9.91l-.25-.1a7.23 7.23 0 0 1 2.38-13.73 68.9 68.9 0 0 0 -.56-14.5 73.15 73.15 0 0 0 -22.26 20.88 7.23 7.23 0 0 1 -6.42 12.61c-6 16.77-3.12 33.17-3.12 33.17a70.06 70.06 0 0 0 12.59-9.59 7.25 7.25 0 0 1 -.78-7.56z" fill="#005c22"/><path d="m240.49 200c-2.51 5.62-5.1 11.21-7.7 16.78-1.29 2.8-2.61 5.58-3.92 8.36l-4 8.34-4 8.33-2 4.16-1 2.07-1 2.08q-4 8.3-8.2 16.54 3.78-8.42 7.7-16.78l1-2.09 1-2.09 2-4.18 4-8.34 4-8.33c1.35-2.76 2.68-5.54 4-8.3q3.97-8.36 8.12-16.55z" fill="#fff"/><circle cx="230.62" cy="235.08" fill="#fff" r="2.31"/><circle cx="226.26" cy="217.11" fill="#fff" r="1.95" transform="matrix(.92247072 -.38606705 .38606705 .92247072 -66.27 104.17)"/><path d="m303.79 222.84a7.23 7.23 0 0 0 9.93 2.45 4.78 4.78 0 0 0 .44-.29 57.31 57.31 0 0 1 5.09 7.64 58.37 58.37 0 0 1 4.94 9.47 1.71 1.71 0 0 0 -.23.13 7.23 7.23 0 0 0 3.74 13.43 69 69 0 0 1 .87 14.48 73.21 73.21 0 0 1 -24.2-18.6 7.23 7.23 0 0 0 -7.63-11.92c-7.6-16.11-6.35-32.71-6.35-32.71a70.28 70.28 0 0 1 13.47 8.32 7.24 7.24 0 0 0 -.07 7.6z" fill="#005c22"/><path d="m328.6 270.19c-3.06-5.35-6.18-10.66-9.31-15.95l-4.72-7.94-4.76-7.91-4.81-7.89-2.41-3.94-1.2-2-1.21-2q-4.84-7.86-9.78-15.66c3.05 5.35 6.17 10.65 9.3 15.95l1.18 2 1.18 2 2.37 4 4.75 7.92 4.79 7.89c1.61 2.62 3.21 5.26 4.83 7.87q4.85 7.85 9.8 15.66z" fill="#fff"/><path d="m317.31 235a2.31 2.31 0 1 0 -.79 3.17 2.31 2.31 0 0 0 .79-3.17z" fill="#fff"/><circle cx="312.75" cy="254.5" fill="#fff" r="1.95"/><path d="m272.13 263.7h-14c-1.43 0-2.65-1.36-2.88-3.22l-4.82-38.29c-.3-2.35 1.07-4.49 2.88-4.49h23.69c1.8 0 3.17 2.14 2.88 4.49l-4.88 38.29c-.22 1.86-1.44 3.22-2.87 3.22z" fill="#ccc"/><path d="m149.42 181.68h7.84v1.97h-7.84z" fill="#999" transform="matrix(.43129859 -.90220925 .90220925 .43129859 -77.59 242.24)"/><path d="m152.36 178.74h1.97v7.84h-1.97z" fill="#999" transform="matrix(.43129859 -.90220925 .90220925 .43129859 -77.59 242.23)"/><circle cx="16.39" cy="206.97" fill="#f2f2f2" r="16.39" transform="matrix(.22971002 -.97325912 .97325912 .22971002 -188.81 175.37)"/><path d="m20 223.86a16.76 16.76 0 0 1 -1.74-.08l.1-1a16.16 16.16 0 0 0 3 0l.09 1c-.57.07-1.04.08-1.45.08zm4.49-.6-.27-1a16 16 0 0 0 2.75-1l.45.91a17.3 17.3 0 0 1 -2.98 1.09zm-9.31-.09a17 17 0 0 1 -2.96-1.17l.46-.91a14.66 14.66 0 0 0 2.74 1.1zm14.92-2.66-.61-.81a15.25 15.25 0 0 0 2.19-2l.75.69a16.56 16.56 0 0 1 -2.38 2.12zm-20.48-.2a17.17 17.17 0 0 1 -2.28-2.15l.76-.67a16.47 16.47 0 0 0 2.15 2zm24.71-4.4-.86-.53a15.87 15.87 0 0 0 1.32-2.64l.95.37a16.32 16.32 0 0 1 -1.46 2.8zm-28.85-.28a17.48 17.48 0 0 1 -1.35-2.83l1-.36a15.59 15.59 0 0 0 1.28 2.67zm31.12-5.54-1-.18a16.08 16.08 0 0 0 .27-2.94h1a16.25 16.25 0 0 1 -.32 3.12zm-33.27-.33a17.31 17.31 0 0 1 -.28-2.76v-.34h1v.34a16.34 16.34 0 0 0 .21 2.62zm32.38-5.1a15.61 15.61 0 0 0 -.7-2.87l1-.33a16.75 16.75 0 0 1 .74 3zm-31.31-.94-1-.21a17.64 17.64 0 0 1 .93-3l.94.39a15.58 15.58 0 0 0 -.87 2.82zm29.35-4.61a15.71 15.71 0 0 0 -1.7-2.42l.78-.66a17.68 17.68 0 0 1 1.8 2.57zm-27.11-.82-.85-.55a17.14 17.14 0 0 1 2-2.46l.74.7a16.36 16.36 0 0 0 -1.89 2.31zm23.3-3.66a16.11 16.11 0 0 0 -2.45-1.63l.48-.89a16.24 16.24 0 0 1 2.61 1.74zm-19.23-.58-.6-.83a17.56 17.56 0 0 1 2.71-1.58l.43.92a16.56 16.56 0 0 0 -2.54 1.49zm14.06-2.21a15.57 15.57 0 0 0 -2.88-.63l.13-1a15.91 15.91 0 0 1 3.06.67zm-8.77-.27-.25-1a17 17 0 0 1 3.1-.49l.06 1a15.87 15.87 0 0 0 -2.91.49z" fill="#999"/><path d="m107.89 141.25c2.68 1.31 6 .49 8.68 1.89 1.06.57 1.93 1.46 3 2.06a4.15 4.15 0 0 0 2.13.57.72.72 0 0 0 .43-1.25 40.59 40.59 0 0 0 -5.13-3.92l6.49 1.91a6.09 6.09 0 0 0 2.53.27.73.73 0 0 0 .15-1.41l-8.17-3.23 9.1.13a2.09 2.09 0 0 0 1.35-.28.85.85 0 0 0 .36-.68.66.66 0 0 0 -.53-.67c-7-1.29-7.11 0-10.17-1.61 1.67-.23 3.34-.67 5-.9a11.83 11.83 0 0 0 4.75-1.28.64.64 0 0 0 -.23-1.17c-3.55-.59-7.19.52-10.65.87-.27 0-.55 0-.65-.28s.07-.42.23-.55l2.44-2a1.5 1.5 0 0 0 .4-.47c.45-.87-.39-1.39-1.07-1.3a3.52 3.52 0 0 0 -1.35.65c-3.47 2.22-7.75 2.8-11.18 5.1s-.8 6.1 2.09 7.55z" fill="#f4aec5"/><path d="m268.18 27.09c-12.26 0-22.21 7.18-22.21 16a13.3 13.3 0 0 0 4.24 9.42l-2.76 8.67 8.19-4.86a28.37 28.37 0 0 0 12.54 2.81c12.27 0 22.22-7.18 22.22-16s-9.95-16.04-22.22-16.04z" fill="#005c22"/><circle cx="257.75" cy="42.42" fill="#fff" r="3.12"/><circle cx="268.54" cy="42.42" fill="#fff" r="3.12"/><circle cx="280.04" cy="42.42" fill="#fff" r="3.12"/><path d="m38.6 28.27c12.27 0 22.22 7.18 22.22 16a13.3 13.3 0 0 1 -4.24 9.42l2.76 8.67-8.19-4.86a28.38 28.38 0 0 1 -12.55 2.8c-12.26 0-22.21-7.18-22.21-16s9.95-16.03 22.21-16.03z" fill="#005c22"/><circle cx="49.04" cy="43.6" fill="#fff" r="3.12"/><circle cx="38.25" cy="43.6" fill="#fff" r="3.12"/><circle cx="26.75" cy="43.6" fill="#fff" r="3.12"/></svg>